<svg width="150" height="55" viewBox="0 0 150 55" fill="none" xmlns="http://www.w3.org/2000/svg">
<g clip-path="url(#clip0_2_1157)">
<path d="M75.1029 19.4916V23.3496H65.3595V34.9023H77.0687V11.7669H80.9728V34.9023L77.0687 38.7634H65.3595L61.4543 34.9023V23.3496L65.3595 19.4916H75.1029Z" fill="#262424"/>
<path d="M99.9852 19.4916L103.891 23.3496V27.2079L99.9852 31.0698H90.1307V27.2079H99.9852V23.3496H88.2799V34.9023H101.926V38.7634H88.2799L84.3747 34.9023V23.3496L88.2799 19.4916H99.9852Z" fill="#262424"/>
<path d="M122.906 19.4916L126.809 23.3496V34.9023L122.906 38.7634H113.162V34.9023H122.906V23.3496H111.198V46.4561H107.292V23.3496L111.198 19.4916H122.906Z" fill="#262424"/>
<path d="M149.727 23.3496H134.115V27.2079H145.824L149.727 31.0698V34.9023L145.824 38.7634H130.209V34.9023H145.824V31.0698H134.115L130.209 27.2079V23.3496L134.115 19.4916H149.727V23.3496Z" fill="#262424"/>
<path d="M54.7471 25.9387C54.8057 21.5788 52.3962 16.2743 52.3962 16.2743C52.3962 16.2743 51.779 14.7337 51 13.92C50.2209 13.1062 48.5594 12.2032 48.5594 12.2032C48.5594 12.2032 48.7481 11.8506 48.7481 11.0951C48.7481 10.3396 47.9186 9.49064 47.7081 9.27474C47.4975 9.05884 44.4314 5.70868 40.6546 3.77567C36.8785 1.84266 33.0576 0.491089 27.547 0.491089H27.5227C22.0121 0.491089 18.1916 1.84266 14.4148 3.77567C10.638 5.70868 7.57288 9.05884 7.36198 9.27474C7.15108 9.49064 6.32159 10.3396 6.32159 11.0951C6.32159 11.8506 6.51098 12.2032 6.51098 12.2032C6.51098 12.2032 4.84917 13.1062 4.07046 13.92C3.29175 14.7337 2.67457 16.2743 2.67457 16.2743C2.67457 16.2743 0.264034 21.5788 0.322931 25.9387C0.322931 25.9387 0.259097 26.7576 1.65604 28.1643C1.65604 28.1643 0.335627 29.4451 0.487983 31.1033C0.487983 31.1033 0.74191 33.715 1.80875 36.5287C2.87524 39.3414 3.86591 41.025 4.44994 41.8541C5.03397 42.6832 7.06574 44.0142 8.10719 44.3658C8.10719 44.3413 7.3708 45.8987 8.36147 47.154C8.36147 47.154 15.2693 54.6646 27.511 54.8655H27.559C39.8004 54.6646 46.7086 47.154 46.7086 47.154C47.6993 45.8984 46.9629 44.3413 46.9629 44.3658C48.0043 44.0142 50.0357 42.6832 50.6198 41.8541C51.2045 41.025 52.1945 39.3417 53.2613 36.5287C54.3274 33.7154 54.5817 31.1033 54.5817 31.1033C54.7341 29.4451 53.4137 28.1643 53.4137 28.1643C54.8106 26.7576 54.7471 25.9387 54.7471 25.9387ZM4.4771 14.5903C5.2812 13.6465 6.88905 12.8774 6.88905 12.8774C6.88905 12.8774 8.76881 15.5771 17.0517 16.9573C23.4549 17.9457 27.5082 17.8149 27.5082 17.8149H27.5297C27.5297 17.8149 31.583 17.9457 37.9862 16.9573C46.2692 15.5771 48.1489 12.8774 48.1489 12.8774C48.1489 12.8774 49.7575 13.6465 50.5612 14.5903C51.365 15.5342 51.7603 16.8966 51.7603 16.8966C51.7603 16.8966 50.6603 20.3001 42.4359 21.9569C34.2119 23.6136 27.5445 23.4971 27.5445 23.4971H27.4934C27.4934 23.4971 20.8261 23.6136 12.6017 21.9569C4.37729 20.3001 3.27765 16.8966 3.27765 16.8966C3.27765 16.8966 3.673 15.5342 4.4771 14.5903ZM46.1376 46.5764C45.3832 47.5091 43.9059 48.659 43.4188 48.9077C42.9318 49.1564 40.2292 50.3995 34.7599 51.0371C30.5952 51.5966 27.5213 51.441 27.5213 51.441C27.5213 51.441 24.441 51.5962 20.2763 51.0371C14.8073 50.3995 12.1044 49.1561 11.617 48.9077C11.1296 48.6594 9.65261 47.5091 8.89824 46.5764C8.14387 45.6437 8.88272 44.6804 8.88272 44.6804C8.88272 44.6804 12.3714 46.1722 18.0763 46.8868C23.7811 47.6022 27.5058 47.4623 27.5058 47.4623H27.5311C27.5311 47.4623 31.2558 47.6019 36.9603 46.8868C42.6648 46.1722 46.1538 44.6804 46.1538 44.6804C46.1538 44.6804 46.8923 45.6437 46.1376 46.5764ZM53.7815 30.3526C53.8827 31.2368 53.4831 32.6721 53.4831 32.6721C53.4831 32.6721 53.4137 33.0858 53.0465 33.3868C52.6794 33.6878 48.8391 37.0205 38.4694 38.2193C38.4694 38.2193 33.3178 38.9605 27.5276 38.9169H27.4835C21.6937 38.9605 16.5418 38.2193 16.5418 38.2193C6.17241 37.0202 2.33212 33.6878 1.96464 33.3868C1.59715 33.0858 1.52767 32.6721 1.52767 32.6721C1.52767 32.6721 1.12879 31.2368 1.23037 30.3526C1.33158 29.4692 2.26229 28.6603 2.26229 28.6603C2.26229 28.6603 3.99287 30.0883 8.50606 31.4834C13.0193 32.8786 21.4295 33.9906 27.4835 33.8594H27.5276C33.582 33.9902 41.9919 32.8786 46.5055 31.4834C51.0186 30.0883 52.7489 28.6603 52.7489 28.6603C52.7489 28.6603 53.6803 29.4692 53.7815 30.3526Z" fill="#02AA4E"/>
</g>
<defs>
<clipPath id="clip0_2_1157">
<rect width="150" height="55" fill="white"/>
</clipPath>
</defs>
</svg>
